<svg xmlns="http://www.w3.org/2000/svg" width="33.929" height="23.75" viewBox="0 0 33.929 23.75"><defs><style>.a{fill:#fff;}</style></defs><path class="a" d="M28.5,12.566a5.1,5.1,0,0,0-4.75-6.924,5.063,5.063,0,0,0-2.826.859,8.483,8.483,0,0,0-15.835,4.23c0,.143.005.286.011.429A7.636,7.636,0,0,0,7.634,26H27.143A6.785,6.785,0,0,0,28.5,12.566Zm-7.045,4.7-5.588,5.588a.851.851,0,0,1-1.2,0L9.081,17.269a.848.848,0,0,1,.6-1.447h3.467V9.884A.851.851,0,0,1,14,9.036H16.54a.851.851,0,0,1,.848.848v5.937h3.467a.848.848,0,0,1,.6,1.447Z" transform="translate(0 -2.25)"/></svg>