<svg xmlns="http://www.w3.org/2000/svg" width="30" height="30" viewBox="0 0 30 30"><defs><style>.a{fill:#fff;}.b{fill:#427eff;}</style></defs><circle class="a" cx="15" cy="15" r="15"/><path class="b" d="M.072,12.179V4.856q0-.013.038-.242L4.42,8.3l-4.3,4.132a1.077,1.077,0,0,1-.051-.254ZM.644,4.106A.548.548,0,0,1,.86,4.068H12.467a.72.72,0,0,1,.229.038l-4.322,3.7L7.8,8.263,6.67,9.191,5.538,8.263l-.572-.458Zm.013,8.823L4.992,8.772l1.678,1.36,1.678-1.36,4.335,4.157a.61.61,0,0,1-.216.038H.86a.576.576,0,0,1-.2-.038ZM8.92,8.3l4.3-3.687a.759.759,0,0,1,.038.242v7.322a.974.974,0,0,1-.038.254Z" transform="translate(8.352 6.568)"/></svg>