<svg xmlns="http://www.w3.org/2000/svg" width="30" height="30" viewBox="0 0 30 30"><defs><style>.a{fill:#fff;}.b{fill:#224285;}</style></defs><circle class="a" cx="15" cy="15" r="15"/><path class="b" d="M2.046,9.143H.151v-6.1h1.9ZM1.1,2.206A1.1,1.1,0,1,1,2.2,1.1,1.107,1.107,0,0,1,1.1,2.206ZM9.14,9.143H7.249V6.172c0-.708-.014-1.616-.985-1.616s-1.136.769-1.136,1.565V9.143H3.234v-6.1H5.052v.833h.027a1.992,1.992,0,0,1,1.793-.986c1.918,0,2.271,1.263,2.271,2.9V9.143Z" transform="translate(10 9.999)"/></svg>