<svg xmlns="http://www.w3.org/2000/svg" width="425" height="322.179" viewBox="0 0 425 322.179"><defs><style>.a,.d{fill:#b98e2e;}.b,.e{fill:#ffd263;}.b,.c,.d,.f,.i,.j{fill-rule:evenodd;}.c,.g{fill:#e8b73c;}.f{fill:#906d2a;}.h{fill:#ffecbd;}.i{fill:#d6a529;}.j{fill:#feda80;}</style></defs><rect class="a" width="425" height="10.488" transform="translate(0 311.691)"/><path class="b" d="M32.225,146.87a13.663,13.663,0,0,1,11.451,21.1h-22.9a13.663,13.663,0,0,1,11.451-21.1Z" transform="translate(-3.793 -37.655)"/><path class="c" d="M18.43,202.86H44.562l3.43,171.372H15Z" transform="translate(-3.064 -62.54)"/><path class="d" d="M47.57,202.86l2.308,171.372h4.767L51.215,202.86Z" transform="translate(-9.716 -62.54)"/><rect class="e" width="39.183" height="9" transform="translate(8.841 194.719)"/><path class="d" d="M11.11,272.49l5.308,5.316H44.985l5.308-5.316Z" transform="translate(-2.269 -69.198)"/><rect class="e" width="41.458" height="9" transform="translate(7.703 248.097)"/><path class="d" d="M9.68,344.09l5.308,5.308H45.831l5.308-5.308Z" transform="translate(-1.977 -87.38)"/><path class="f" d="M34.56,216.66h0a4.607,4.607,0,0,1,4.591,4.6v21.318H30V221.259a4.615,4.615,0,0,1,4.6-4.6Zm0,118.359h0a4.607,4.607,0,0,1,4.591,4.591v21.35H30V339.635a4.607,4.607,0,0,1,4.6-4.591Zm0-59.681h0a4.607,4.607,0,0,1,4.591,4.6V301.28H30V279.954a4.615,4.615,0,0,1,4.56-4.6Z" transform="translate(-6.128 -65.359)"/><rect class="e" width="30.955" height="6.27" transform="translate(12.955 145.445)"/><path class="c" d="M20.85,172.92H44.523v17.57H41.659V178.236a2.256,2.256,0,0,0-4.512,0V190.49h-2.2V178.236a2.256,2.256,0,0,0-4.512,0V190.49H28.25V178.236a2.256,2.256,0,0,0-4.512,0V190.49H20.85Z" transform="translate(-4.259 -44.236)"/><path class="b" d="M35.505,122.76l.867,9.549,1.321,14.578H32.41l1.321-14.578.859-9.549Z" transform="translate(-6.62 -31.534)"/><path class="b" d="M494.861,146.87a13.663,13.663,0,0,1,11.451,21.1H483.434a13.663,13.663,0,0,1,11.451-21.1Z" transform="translate(-98.293 -37.655)"/><path class="c" d="M481.06,202.86h26.132l3.43,171.372H477.63Z" transform="translate(-97.558 -62.54)"/><path class="d" d="M510.21,202.86l2.3,171.372h4.767l-3.43-171.372Z" transform="translate(-104.212 -62.54)"/><rect class="e" width="39.183" height="9" transform="translate(376.977 194.719)"/><path class="d" d="M473.74,272.49l5.308,5.316h28.567l5.308-5.316Z" transform="translate(-96.763 -69.198)"/><rect class="e" width="41.458" height="9" transform="translate(375.839 248.097)"/><path class="d" d="M472.31,344.09l5.308,5.308h30.843l5.308-5.308Z" transform="translate(-96.471 -87.38)"/><path class="f" d="M497.179,216.66h0a4.615,4.615,0,0,1,4.6,4.6v21.318h-9.2V221.259a4.615,4.615,0,0,1,4.6-4.6Zm0,118.359h0a4.607,4.607,0,0,1,4.6,4.591v21.35h-9.2V339.635a4.607,4.607,0,0,1,4.6-4.591Zm0-59.681h0a4.615,4.615,0,0,1,4.6,4.6V301.28h-9.2V279.954a4.615,4.615,0,0,1,4.6-4.6Z" transform="translate(-100.611 -65.359)"/><rect class="e" width="30.955" height="6.27" transform="translate(381.091 145.445)"/><path class="c" d="M483.49,172.92h23.665v17.57h-2.881V178.236a2.256,2.256,0,0,0-4.512,0V190.49h-2.188V178.236a2.252,2.252,0,0,0-4.5,0V190.49h-2.188V178.236a2.256,2.256,0,0,0-4.512,0V190.49h-2.88Z" transform="translate(-98.755 -44.236)"/><path class="b" d="M498.135,122.76l.867,9.549,1.321,14.578H495.04l1.321-14.578.867-9.549Z" transform="translate(-101.114 -31.534)"/><rect class="g" width="235.652" height="148.192" transform="translate(94.67 163.5)"/><path class="d" d="M83.907,211.07a10.655,10.655,0,0,1,8.928,16.456H74.979a10.655,10.655,0,0,1,8.928-16.456Z" transform="translate(-14.964 -53.958)"/><path class="d" d="M73.146,254.74H93.533l2.674,133.646H70.48Z" transform="translate(-14.396 -73.137)"/><path class="d" d="M95.88,254.74l1.8,133.646h3.716L98.721,254.74Z" transform="translate(-19.584 -73.137)"/><rect class="a" width="30.557" height="7.018" transform="translate(53.665 223.905)"/><path class="d" d="M67.44,309.04l4.146,4.138H93.859L98,309.04Z" transform="translate(-13.775 -78.426)"/><rect class="a" width="32.331" height="7.018" transform="translate(52.774 262.228)"/><path class="d" d="M66.32,364.88l4.146,4.138H94.513l4.146-4.138Z" transform="translate(-13.546 -95.634)"/><path class="d" d="M85.723,265.5h0a3.6,3.6,0,0,1,3.589,3.581v16.631H82.15V269.081a3.589,3.589,0,0,1,3.581-3.581Zm0,92.307h0a3.6,3.6,0,0,1,3.589,3.581v16.631H82.15V361.387a3.6,3.6,0,0,1,3.581-3.589Zm0-46.527h0a3.6,3.6,0,0,1,3.589,3.589V331.5H82.15V314.868a3.6,3.6,0,0,1,3.573-3.613Z" transform="translate(-16.779 -75.335)"/><rect class="a" width="24.143" height="4.886" transform="translate(56.872 185.477)"/><path class="d" d="M75,231.38H93.461v13.695h-2.22v-9.549a1.759,1.759,0,0,0-3.509,0v9.549H86.021v-9.549a1.759,1.759,0,1,0-3.517,0v9.549H80.8v-9.549a1.759,1.759,0,1,0-3.517,0v9.549H75Z" transform="translate(-15.319 -59.05)"/><path class="d" d="M86.469,192.26l.676,7.448,1.027,11.371H84.05l1.034-11.371.668-7.448Z" transform="translate(-17.168 -49.221)"/><path class="d" d="M444.716,211.07a10.655,10.655,0,0,1,8.928,16.456H435.787a10.647,10.647,0,0,1,8.928-16.456Z" transform="translate(-88.659 -53.958)"/><path class="d" d="M433.954,254.74h20.379l2.674,133.646H431.28Z" transform="translate(-88.091 -73.137)"/><path class="d" d="M456.69,254.74l1.79,133.646H462.2L459.523,254.74Z" transform="translate(-93.281 -73.137)"/><rect class="a" width="30.557" height="7.018" transform="translate(340.778 223.905)"/><path class="d" d="M428.25,309.04l4.138,4.138h22.273l4.146-4.138Z" transform="translate(-87.472 -78.426)"/><rect class="a" width="32.331" height="7.018" transform="translate(339.887 262.228)"/><path class="d" d="M427.13,364.88l4.138,4.138h24.055l4.146-4.138Z" transform="translate(-87.243 -95.634)"/><path class="d" d="M446.531,265.5h0a3.589,3.589,0,0,1,3.621,3.581v16.631H442.99V269.081a3.6,3.6,0,0,1,3.589-3.581Zm0,92.307h0a3.6,3.6,0,0,1,3.621,3.581v16.631H442.99V361.387a3.6,3.6,0,0,1,3.589-3.589Zm0-46.527h0a3.6,3.6,0,0,1,3.581,3.589V331.5H442.95V314.868a3.6,3.6,0,0,1,3.581-3.613Z" transform="translate(-90.474 -75.335)"/><rect class="a" width="24.143" height="4.886" transform="translate(343.985 185.477)"/><path class="d" d="M435.85,231.38h18.461v13.695h-2.252v-9.549a1.759,1.759,0,1,0-3.517,0v9.549h-1.7v-9.549a1.759,1.759,0,0,0-3.517,0v9.549h-1.711v-9.549a1.759,1.759,0,1,0-3.517,0v9.549H435.85Z" transform="translate(-89.024 -59.05)"/><path class="d" d="M447.279,192.26l.668,7.448,1.035,11.371H444.86l1.027-11.371.676-7.448Z" transform="translate(-90.864 -49.221)"/><rect class="e" width="123.436" height="179.751" transform="translate(150.778 131.94)"/><rect class="h" width="135.014" height="14.729" transform="translate(144.993 134.681)"/><path class="c" d="M258.013,253.59h0a35.172,35.172,0,0,1,35.069,35.069v95.935H223V288.659a35.164,35.164,0,0,1,35.013-35.069Z" transform="translate(-45.549 -72.902)"/><path class="i" d="M258.013,253.59h0a34.815,34.815,0,0,1,19.177,5.745,34.7,34.7,0,0,0-7.6-.836h0a35.172,35.172,0,0,0-35.069,35.069v91.025H223V288.659a35.164,35.164,0,0,1,35.013-35.069Z" transform="translate(-45.549 -72.902)"/><path class="f" d="M150.4,313.187h0A14.069,14.069,0,0,1,164.418,327.2v36.819H136.36V327.2A14.069,14.069,0,0,1,150.4,313.187Zm179.043,0h0a14.069,14.069,0,0,1,14,14.013v36.819h-28.05V327.2a14.069,14.069,0,0,1,14.053-14.013Zm0-63.127h0a14.069,14.069,0,0,1,14.021,14.029V300.94H315.387V264.089A14.069,14.069,0,0,1,329.44,250.06Zm-179.043,0h0a14.069,14.069,0,0,1,14.029,14.029V300.94H136.36V264.089A14.069,14.069,0,0,1,150.4,250.06Z" transform="translate(-27.852 -72.181)"/><path class="f" d="M261.077,311.1h0a23.212,23.212,0,0,1,23.148,23.14v62.068H238V334.24A23.212,23.212,0,0,1,261.077,311.1Z" transform="translate(-48.612 -84.649)"/><path class="j" d="M275.754,51.079a63.429,63.429,0,0,1,28.177,92.848H197.611a63.429,63.429,0,0,1,28.177-92.848,35.013,35.013,0,0,0,21.533-29.657L249.255,0h3.072l1.934,21.421a35.013,35.013,0,0,0,21.493,29.657Z" transform="translate(-38.271)"/><path class="b" d="M280.208,64.19a63.429,63.429,0,0,1,28.177,92.848H209.18C253.829,155.215,316.645,119.47,280.208,64.19Z" transform="translate(-42.726 -13.111)"/></svg>