<svg xmlns="http://www.w3.org/2000/svg" xmlns:xlink="http://www.w3.org/1999/xlink" width="214.207" height="52.878" viewBox="0 0 214.207 52.878"><defs><style>.a{fill:#fff;}.b{fill:url(#a);}.c{fill:url(#b);}.d{fill:url(#e);}.e{filter:url(#c);}</style><linearGradient id="a" x1="0.5" y1="-0.136" x2="0.5" y2="0.867" gradientUnits="objectBoundingBox"><stop offset="0" stop-color="#224285"/><stop offset="1" stop-color="#427eff"/></linearGradient><linearGradient id="b" x1="0.5" y1="0.397" x2="0.5" y2="1" gradientUnits="objectBoundingBox"><stop offset="0" stop-color="#427eff"/><stop offset="1" stop-color="#224285"/></linearGradient><filter id="c" x="0" y="0" width="52.878" height="52.878" filterUnits="userSpaceOnUse"><feOffset dy="3" input="SourceAlpha"/><feGaussianBlur stdDeviation="3" result="d"/><feFlood flood-opacity="0.161"/><feComposite operator="in" in2="d"/><feComposite in="SourceGraphic"/></filter><linearGradient id="e" x1="0.5" x2="0.5" y2="1" gradientUnits="objectBoundingBox"><stop offset="0" stop-color="#fff"/><stop offset="1" stop-color="#dedede"/></linearGradient></defs><g transform="translate(-133.561 -30.561)"><path class="a" d="M-77.472-3.708a3.45,3.45,0,0,1-.936-2.07q0-.918,1.548-2.43a2.732,2.732,0,0,1,1.908-.864q1.008,0,2.808,1.8A5.48,5.48,0,0,0-70.7-6.1a3.424,3.424,0,0,0,1.728.558q3.348,0,3.348-2.736a1.616,1.616,0,0,0-.918-1.386,6.729,6.729,0,0,0-2.286-.81,19.677,19.677,0,0,1-2.952-.81A19.454,19.454,0,0,1-74.736-12.6a5.965,5.965,0,0,1-2.286-2.394,7.945,7.945,0,0,1-.918-3.942,7.567,7.567,0,0,1,2.358-5.526,8.683,8.683,0,0,1,6.426-2.358,13.147,13.147,0,0,1,3.942.558,7.559,7.559,0,0,1,2.466,1.134l.9.684a2.811,2.811,0,0,1,1.116,1.764A3.976,3.976,0,0,1-61.6-20.7q-1.224,1.8-2.52,1.8a3.7,3.7,0,0,1-1.872-.72,4.235,4.235,0,0,1-.414-.36,5.494,5.494,0,0,0-.558-.468,3.606,3.606,0,0,0-1.926-.468,3.239,3.239,0,0,0-1.944.558A1.8,1.8,0,0,0-71.6-18.81a1.853,1.853,0,0,0,.918,1.6,5.67,5.67,0,0,0,2.286.828,26.955,26.955,0,0,1,2.988.666,18.6,18.6,0,0,1,2.988,1.1,5.277,5.277,0,0,1,2.286,2.25,7.82,7.82,0,0,1,.918,3.942A8.737,8.737,0,0,1-60.156-4.3,7.123,7.123,0,0,1-62.6-1.548,11.174,11.174,0,0,1-68.832.36a12.083,12.083,0,0,1-3.2-.414A8.68,8.68,0,0,1-74.484-1.08a8.752,8.752,0,0,1-2.664-2.232Zm32.9-13.248q.216-2.016,2.844-2.016a7.455,7.455,0,0,1,2.088.216,1.51,1.51,0,0,1,.954.756,3.088,3.088,0,0,1,.324.954A10.458,10.458,0,0,1-38.3-15.8V-3.2a10.458,10.458,0,0,1-.054,1.242,3.337,3.337,0,0,1-.306.954q-.5.936-2.466.936a4.857,4.857,0,0,1-2.628-.486,1.944,1.944,0,0,1-.774-1.422Q-45.864-.072-48.978-.072a7.853,7.853,0,0,1-5.778-2.844A9.366,9.366,0,0,1-57.42-9.522a9.271,9.271,0,0,1,2.682-6.588,8.009,8.009,0,0,1,5.886-2.826,5.609,5.609,0,0,1,2.232.432,4.956,4.956,0,0,1,1.4.81A5,5,0,0,1-44.568-16.956ZM-51.12-9.468a2.988,2.988,0,0,0,.936,2.142,3.06,3.06,0,0,0,2.268.954A2.864,2.864,0,0,0-45.7-7.344a3.12,3.12,0,0,0,.882-2.142,3.324,3.324,0,0,0-.846-2.178,2.81,2.81,0,0,0-2.268-1.008,2.916,2.916,0,0,0-2.3,1.008A3.269,3.269,0,0,0-51.12-9.468Zm15.7-15.264a10.458,10.458,0,0,1,.054-1.242,3.337,3.337,0,0,1,.306-.954q.5-.972,2.808-.972,2.2,0,2.736.972a2.873,2.873,0,0,1,.342.972,10.952,10.952,0,0,1,.054,1.26V-8.028a3.766,3.766,0,0,0,.216,1.638q.216.342.954.342a5.764,5.764,0,0,1,.99.054,1.8,1.8,0,0,1,.612.306q.72.468.72,2.556,0,2.268-.72,2.772-.936.648-4.464.216-2.772-.36-3.6-1.836A11.816,11.816,0,0,1-35.424-7.6Zm24.084,7.776q.216-2.016,2.844-2.016a7.455,7.455,0,0,1,2.088.216A1.51,1.51,0,0,1-5.454-18a3.088,3.088,0,0,1,.324.954A10.458,10.458,0,0,1-5.076-15.8V-3.2A10.458,10.458,0,0,1-5.13-1.962a3.337,3.337,0,0,1-.306.954q-.5.936-2.466.936A4.857,4.857,0,0,1-10.53-.558,1.944,1.944,0,0,1-11.3-1.98Q-12.636-.072-15.75-.072a7.853,7.853,0,0,1-5.778-2.844,9.366,9.366,0,0,1-2.664-6.606A9.271,9.271,0,0,1-21.51-16.11a8.009,8.009,0,0,1,5.886-2.826,5.609,5.609,0,0,1,2.232.432,4.956,4.956,0,0,1,1.4.81A5,5,0,0,1-11.34-16.956Zm-6.552,7.488a2.988,2.988,0,0,0,.936,2.142,3.06,3.06,0,0,0,2.268.954,2.864,2.864,0,0,0,2.214-.972,3.12,3.12,0,0,0,.882-2.142,3.324,3.324,0,0,0-.846-2.178,2.81,2.81,0,0,0-2.268-1.008,2.916,2.916,0,0,0-2.3,1.008A3.269,3.269,0,0,0-17.892-9.468ZM8.316-18.9a7.634,7.634,0,0,1,5.994,2.736,9.811,9.811,0,0,1,2.394,6.7v6.336A10.458,10.458,0,0,1,16.65-1.89a2.884,2.884,0,0,1-.342.954Q15.84,0,13.536,0,11.34,0,10.8-.936a2.873,2.873,0,0,1-.342-.972A11.383,11.383,0,0,1,10.4-3.2V-9.5a3.114,3.114,0,0,0-.828-2.3,2.853,2.853,0,0,0-2.106-.828,3.508,3.508,0,0,0-2.25.774A2.759,2.759,0,0,0,4.1-10.116v6.984A10.458,10.458,0,0,1,4.05-1.89a2.884,2.884,0,0,1-.342.954Q3.24,0,.936,0-1.332,0-1.836-.972a3.364,3.364,0,0,1-.306-.936A10.392,10.392,0,0,1-2.2-3.168V-24.7a10.458,10.458,0,0,1,.054-1.242,2.941,2.941,0,0,1,.306-.918q.5-.972,2.808-.972,2.268,0,2.736.972a2.884,2.884,0,0,1,.342.954A10.458,10.458,0,0,1,4.1-24.66V-16.7A5.326,5.326,0,0,1,8.316-18.9Zm30.06,4.752A8.546,8.546,0,0,1,40.5-8.5a8.509,8.509,0,0,1-2.466,6.03A7.857,7.857,0,0,1,32.22-.036H22.752q-2.52,0-2.952-1.368a6.019,6.019,0,0,1-.216-1.872v-19.98a10.393,10.393,0,0,1,.054-1.26,2.9,2.9,0,0,1,.342-.936q.5-.972,2.808-.972H31.86a7.407,7.407,0,0,1,5.544,2.3,7.659,7.659,0,0,1,2.34,5.616A7.5,7.5,0,0,1,38.376-14.148ZM34.128-8.856a3.837,3.837,0,0,0-.2-1.368,1.27,1.27,0,0,0-.666-.72,5.609,5.609,0,0,0-2.016-.288,3.136,3.136,0,0,1-1.944-.5,2.55,2.55,0,0,1-.648-2.07,2.508,2.508,0,0,1,.666-2.07,3.74,3.74,0,0,1,2.214-.5q1.44,0,1.728-.756a5.474,5.474,0,0,0,.108-1.3,1.352,1.352,0,0,0-.594-1.26A3.5,3.5,0,0,0,31-20.052h-5.04V-6.408h5.9Q34.128-6.408,34.128-8.856Zm21.024-8.1q.216-2.016,2.844-2.016a7.455,7.455,0,0,1,2.088.216,1.51,1.51,0,0,1,.954.756,3.088,3.088,0,0,1,.324.954,10.458,10.458,0,0,1,.054,1.242V-3.2a10.458,10.458,0,0,1-.054,1.242,3.337,3.337,0,0,1-.306.954q-.5.936-2.466.936a4.857,4.857,0,0,1-2.628-.486,1.944,1.944,0,0,1-.774-1.422Q53.856-.072,50.742-.072a7.853,7.853,0,0,1-5.778-2.844A9.366,9.366,0,0,1,42.3-9.522a9.271,9.271,0,0,1,2.682-6.588,8.009,8.009,0,0,1,5.886-2.826A5.609,5.609,0,0,1,53.1-18.5a4.956,4.956,0,0,1,1.4.81A5,5,0,0,1,55.152-16.956ZM48.6-9.468a2.988,2.988,0,0,0,.936,2.142,3.06,3.06,0,0,0,2.268.954,2.864,2.864,0,0,0,2.214-.972A3.12,3.12,0,0,0,54.9-9.486a3.324,3.324,0,0,0-.846-2.178,2.81,2.81,0,0,0-2.268-1.008,2.916,2.916,0,0,0-2.3,1.008A3.269,3.269,0,0,0,48.6-9.468Zm28.584-9.288a2.431,2.431,0,0,1,1.134.738,2.539,2.539,0,0,1,.45,1.674,5.694,5.694,0,0,1-.684,2.52,2.144,2.144,0,0,1-1.98,1.368,2.813,2.813,0,0,1-1.242-.288,3.614,3.614,0,0,0-1.566-.288,2.839,2.839,0,0,0-1.818.684,2.063,2.063,0,0,0-.846,1.656v7.56a10.458,10.458,0,0,1-.054,1.242,2.884,2.884,0,0,1-.342.954Q69.7,0,67.428,0a3.97,3.97,0,0,1-2.484-.612A2.159,2.159,0,0,1,64.3-2.16V-15.84a10.458,10.458,0,0,1,.054-1.242A2.94,2.94,0,0,1,64.656-18q.5-.972,2.808-.972,2.16,0,2.7.828a2.072,2.072,0,0,1,.4,1.188,6.009,6.009,0,0,1,.522-.612,6.67,6.67,0,0,1,1.458-.972,4.208,4.208,0,0,1,1.962-.612,9.43,9.43,0,0,1,1.422.09A8.659,8.659,0,0,1,77.184-18.756Z" transform="translate(269 67)"/><g transform="translate(141.127 35.127)"><circle class="a" cx="22" cy="22" r="22" transform="translate(-3.127 -3.127)"/><path class="b" d="M18.873,0A18.873,18.873,0,1,1,0,18.873,18.873,18.873,0,0,1,18.873,0Z"/><g class="e" transform="matrix(1, 0, 0, 1, -7.57, -4.57)"><path class="c" d="M17.439,0A17.439,17.439,0,1,1,0,17.439,17.439,17.439,0,0,1,17.439,0Z" transform="translate(9 6)"/></g><path class="d" d="M325.412,156.771a13.567,13.567,0,1,0,0,13.567,10.853,10.853,0,1,1,0-13.567m.452,6.783-12.21-3.98,7.6,10.4V157.133l-7.6,10.4Z" transform="translate(-294.115 -144.677)"/></g></g></svg>